<?xml version="1.0" encoding="UTF-8"?><svg xmlns="http://www.w3.org/2000/svg" xmlns:xlink="http://www.w3.org/1999/xlink" height="500.3" preserveAspectRatio="xMidYMid meet" version="1.0" viewBox="0.0 -0.3 2356.2 500.3" width="2356.2" zoomAndPan="magnify"><g id="change1_1"><path d="M913.795,250.992c0.434-1.269-0.244-2.65-1.514-3.085c-1.274-0.437-2.65,0.244-3.085,1.514 c-27.687,81.114-116.204,124.577-197.309,96.89c-64.638-22.064-99.272-92.596-77.211-157.231 c17.565-51.455,73.716-79.024,125.166-61.465c40.911,13.966,62.834,58.609,48.871,99.517c-11.085,32.478-46.52,49.891-78.997,38.794 c-25.725-8.779-39.511-36.853-30.732-62.581c6.94-20.327,29.135-31.218,49.448-24.282c1.276,0.437,2.653-0.244,3.085-1.514 c0.434-1.269-0.244-2.65-1.514-3.085c-22.868-7.794-47.813,4.449-55.617,27.31c-4.672,13.691-3.735,28.383,2.641,41.368 c6.378,12.984,17.428,22.709,31.118,27.381c35.002,11.959,73.218-6.81,85.167-41.822c14.83-43.445-8.454-90.854-51.899-105.686 c-53.977-18.438-112.904,10.502-131.335,64.493c-7.721,22.62-8.735,45.93-4.151,67.782c-0.063,0.118-0.155,0.213-0.2,0.343 c-18.405,53.92-77.244,82.82-131.162,64.41c-20.773-7.09-37.541-21.846-47.217-41.546c-0.442-0.9-0.776-1.83-1.184-2.741 c13.207-6.605,25.802-14.577,37.439-23.782c0.011,0.022,0.018,0.044,0.029,0.066c4.366,8.891,11.932,15.548,21.307,18.749 c23.872,8.143,49.924-4.641,58.072-28.515c10.077-29.526-5.744-61.743-35.268-71.82c-17.724-6.05-36.742-4.838-53.552,3.419 c-16.811,8.255-29.4,22.562-35.448,40.286c-0.377,1.104-0.63,2.227-0.961,3.338c-44.851-20.162-95.342-25.239-137.03-11.851 c-2.657,0.853-5.11,1.84-7.594,2.807c-38.391-12.29-78.941-13.891-113.453-2.807c-30.796,9.89-49.825,27.986-60.369,41.428 c-0.69,0.88-0.69,2.119,0,2.999c10.544,13.441,29.576,31.541,60.369,41.425c15.698,5.04,32.646,7.474,50.074,7.474 c20.913,0,42.508-3.536,63.46-10.251c2.459,0.955,4.885,1.933,7.513,2.777c15.698,5.04,32.646,7.474,50.072,7.474 c30.234,0,61.888-7.37,90.958-21.127c0.416,0.926,0.756,1.874,1.206,2.791c10.245,20.868,28.008,36.495,50.008,44.005 c11.541,3.939,23.293,5.808,34.858,5.808c41.046,0,79.627-23.609,97.744-61.821v93.672c0,1.343,1.087,2.43,2.43,2.43 s2.43-1.087,2.43-2.43v-90.811c12.624,36.031,41.01,66.156,79.861,79.417c17.098,5.837,34.514,8.606,51.647,8.606 C828.657,359.516,891.079,317.54,913.795,250.992z M444.208,271.23c-5.699-15.055-6.806-31.256-3.258-46.935 c13.821,6.655,27.051,14.744,39.185,24.282C468.961,257.361,456.844,264.886,444.208,271.23z M443.341,215.733 c5.63-16.495,17.347-29.811,32.993-37.494c15.643-7.69,33.349-8.812,49.839-3.184c26.99,9.211,41.451,38.661,32.241,65.651 c-3.528,10.336-10.869,18.68-20.674,23.492c-9.802,4.812-20.894,5.524-31.23,1.995c-8.148-2.781-14.723-8.568-18.517-16.293 c-3.794-7.726-4.352-16.467-1.571-24.612c2.183-6.394,6.724-11.555,12.787-14.533c6.067-2.978,12.929-3.412,19.319-1.236 c1.267,0.446,2.653-0.247,3.085-1.514c0.434-1.272-0.244-2.65-1.514-3.085c-7.621-2.603-15.802-2.074-23.032,1.471 c-7.227,3.552-12.642,9.704-15.242,17.326c-2.141,6.271-2.522,12.843-1.259,19.173c-11.951-9.104-24.815-16.986-38.303-23.407 C442.624,218.233,442.918,216.973,443.341,215.733z M181.191,286.875c-28.489-9.147-46.491-25.573-56.834-38.298 c10.34-12.725,28.345-29.151,56.834-38.301c31.957-10.258,69.258-9.335,105.038,1.101c-22.352,10.217-37.089,24.534-45.848,35.7 c-0.69,0.88-0.69,2.119,0,2.999c8.759,11.166,23.495,25.482,45.845,35.698C250.446,296.206,213.147,297.127,181.191,286.875z M293.339,213.549c23.437,7.715,46.016,19.515,65.749,35.028c-19.734,15.513-42.314,27.312-65.752,35.025 c-23.374-9.448-38.721-23.689-47.935-35.025C254.616,237.24,269.963,222.998,293.339,213.549z M302.238,286.875 c-0.584-0.188-1.098-0.421-1.673-0.615c22.888-8.217,44.801-20.275,63.948-35.797c0.569-0.46,0.899-1.153,0.899-1.886 s-0.33-1.426-0.899-1.886c-19.164-15.536-41.113-27.553-64.024-35.771c0.601-0.203,1.138-0.447,1.749-0.643 c40.784-13.099,90.282-8.037,134.201,11.892c-4.093,17.097-2.899,34.819,3.422,51.234 C395.107,294.642,344.086,300.307,302.238,286.875z M874.46,0.38c-1.108-0.705-2.579-0.403-3.312,0.683 C867.915,5.806,855.346,26,855.08,52.505c-23.369-12.554-47.149-11.267-52.86-10.723c-1.307,0.123-2.28,1.265-2.195,2.574 c0.491,7.576,4.689,46.527,39.174,69.338c17.487,11.565,35.489,14.224,48.347,14.224c3.846,0,7.232-0.237,10.003-0.546 c0.541-0.06,0.999-0.321,1.369-0.668c0.51-0.149,0.989-0.403,1.317-0.869c6.976-9.906,18.346-30.577,16.123-57.728 C912.977,26.895,880.864,4.461,874.46,0.38z M841.88,109.642c-29.849-19.743-35.676-52.364-36.801-63.202 c8.334-0.49,29.691-0.218,50.126,11.715c0.396,6.912,1.661,14.181,4.177,21.672c7.348,21.886,21.798,35.576,32.327,43.129 C879.485,123.536,860.371,121.875,841.88,109.642z M860.378,61.464c4.471,3.103,8.848,6.774,12.96,11.237 c14.646,15.901,19.468,33.988,20.969,46.153c-9.935-7.177-23.438-20.085-30.317-40.574C862.052,72.509,860.941,66.89,860.378,61.464 z M899.164,118.563c-1.544-12.865-6.607-32.169-22.252-49.156c-5.34-5.797-11.085-10.4-16.937-14.071 c-0.598-23.636,9.455-42.459,13.876-49.523c8.957,6.205,34.739,27.023,37.662,62.692C913.328,90.64,905.568,108.143,899.164,118.563 z M1457.557,126.705c0.37,0.348,0.828,0.608,1.367,0.668c2.776,0.308,6.16,0.546,10.008,0.546c12.855,0,30.86-2.66,48.342-14.224 c34.49-22.811,38.685-61.762,39.178-69.338c0.085-1.31-0.887-2.451-2.192-2.574c-5.725-0.542-29.495-1.83-52.862,10.721 c-0.261-26.513-12.837-46.701-16.07-51.442c-0.745-1.089-2.211-1.381-3.312-0.681c-6.402,4.079-38.514,26.515-41.893,67.727 c-2.226,27.139,9.14,47.818,16.116,57.726C1456.568,126.301,1457.047,126.556,1457.557,126.705z M1551.398,46.44 c-1.125,10.839-6.952,43.459-36.801,63.202c-18.494,12.23-37.617,13.897-49.831,13.312c10.531-7.553,24.979-21.242,32.325-43.128 c2.516-7.492,3.784-14.76,4.181-21.672C1521.708,46.222,1543.066,45.96,1551.398,46.44z M1462.169,118.855 c1.502-12.161,6.324-30.25,20.971-46.154c4.112-4.465,8.49-8.137,12.962-11.24c-0.564,5.427-1.675,11.047-3.613,16.818 C1485.609,98.77,1472.103,111.678,1462.169,118.855z M1444.963,68.506c2.928-35.672,28.71-56.49,37.665-62.694 c4.422,7.062,14.479,25.88,13.879,49.522c-5.854,3.671-11.602,8.275-16.944,14.074c-15.643,16.989-20.704,36.292-22.248,49.155 C1450.908,108.138,1443.15,90.632,1444.963,68.506z M2236.878,236.995c-10.549-13.441-29.583-31.541-60.372-41.428 c-34.506-11.076-75.053-9.478-113.445,2.809c-2.485-0.968-4.939-1.956-7.597-2.809c-43.29-13.893-96.092-7.961-142.193,14.178 c-6.539-15.664-18.32-28.318-33.697-35.869c-16.813-8.257-35.833-9.47-53.552-3.419c-29.521,10.075-45.348,42.294-35.273,71.82 c8.157,23.879,34.224,36.666,58.075,28.515c9.377-3.201,16.946-9.859,21.312-18.749c1.516-3.088,2.553-6.322,3.166-9.615 c11.778,9.237,24.527,17.205,37.884,23.791c-1.281,4.17-2.811,8.288-4.771,12.28c-9.676,19.701-26.442,34.457-47.213,41.546 c-53.932,18.393-112.761-10.487-131.164-64.41c-0.045-0.131-0.138-0.226-0.202-0.344c4.584-21.852,3.571-45.162-4.15-67.782 c-18.427-53.989-77.346-82.924-131.335-64.493c-21.046,7.185-38.035,22.135-47.839,42.094c-9.804,19.962-11.242,42.545-4.062,63.591 c11.954,35.012,50.169,53.766,85.167,41.822c28.259-9.645,43.407-40.486,33.764-68.75c-7.806-22.861-32.767-35.107-55.617-27.31 c-1.272,0.434-1.95,1.815-1.519,3.085c0.432,1.267,1.832,1.948,3.084,1.514c20.325-6.924,42.51,3.953,49.448,24.282 c8.779,25.727-5.006,53.802-30.727,62.581c-15.741,5.372-32.62,4.292-47.535-3.035c-14.92-7.327-26.095-20.028-31.462-35.759 c-6.767-19.817-5.41-41.081,3.82-59.878s25.227-32.874,45.044-39.639c51.474-17.57,107.608,10.013,125.166,61.465 c22.066,64.635-12.571,135.169-77.204,157.231c-81.123,27.683-169.631-15.779-197.311-96.89c-0.437-1.269-1.832-1.955-3.085-1.514 c-1.272,0.434-1.95,1.815-1.519,3.085c22.721,66.555,85.138,108.524,151.835,108.524c17.131,0,34.552-2.771,51.645-8.606 c38.85-13.261,67.237-43.385,79.861-79.415v90.809c0,1.343,1.087,2.43,2.43,2.43c1.343,0,2.43-1.087,2.43-2.43v-93.669 c18.122,38.212,56.698,61.817,97.747,61.817c11.56,0,23.319-1.87,34.855-5.808c22-7.51,39.762-23.136,50.008-44.005 c1.968-4.005,3.51-8.134,4.831-12.311c28.746,13.401,59.957,20.568,89.783,20.568c17.425,0,34.376-2.434,50.074-7.474 c2.627-0.844,5.052-1.821,7.509-2.777c20.951,6.715,42.546,10.251,63.459,10.251c17.425,0,34.376-2.434,50.074-7.474 c30.789-9.887,49.823-27.986,60.372-41.428C2237.566,239.114,2237.566,237.876,2236.878,236.995z M1865.77,249.901 c-3.792,7.726-10.369,13.513-18.512,16.293c-21.336,7.289-44.621-4.15-51.906-25.488c-9.211-26.99,5.253-56.44,32.236-65.651 c16.505-5.626,34.2-4.499,49.841,3.184c14.426,7.084,25.446,18.991,31.499,33.731c-12.312,6.247-24.083,13.651-35.026,22.17 c-0.152-3.505-0.794-7.01-1.958-10.423c-2.605-7.621-8.02-13.774-15.247-17.326c-7.223-3.547-15.404-4.067-23.03-1.471 c-1.272,0.434-1.95,1.815-1.519,3.085c0.437,1.267,1.832,1.955,3.084,1.514c6.406-2.181,13.259-1.739,19.319,1.236 c6.069,2.978,10.611,8.138,12.789,14.533C1870.122,233.434,1869.566,242.175,1865.77,249.901z M1876.082,238.495 c10.772-8.469,22.422-15.771,34.565-21.975c4.867,14.718,5.439,30.153,1.881,44.887 C1899.704,255.01,1887.408,247.398,1876.082,238.495z M2053.974,276.796c-41.636,13.368-92.369,7.834-136.962-13.149 c4.129-16.161,3.536-33.174-1.946-49.335c45.057-21.753,96.646-27.689,138.908-14.117c0.613,0.197,1.152,0.442,1.755,0.645 c-22.911,8.217-44.862,20.232-64.029,35.769c-0.569,0.46-0.902,1.153-0.902,1.886c0,0.733,0.332,1.426,0.902,1.886 c19.148,15.523,41.061,27.581,63.948,35.798C2055.073,276.373,2054.559,276.608,2053.974,276.796z M2062.868,203.465 c23.374,9.448,38.725,23.692,47.943,35.03c-9.216,11.336-24.565,25.579-47.935,35.027c-23.438-7.715-46.018-19.515-65.752-35.027 C2016.857,222.983,2039.433,211.181,2062.868,203.465z M2175.017,276.796c-31.95,10.258-69.25,9.334-105.031-1.102 c22.345-10.217,37.083-24.534,45.846-35.699c0.688-0.88,0.688-2.119,0-2.999c-8.764-11.167-23.504-25.486-45.853-35.703 c35.778-10.437,73.077-11.362,105.039-1.098c28.487,9.144,46.496,25.576,56.841,38.301 C2221.512,251.22,2203.503,267.651,2175.017,276.796z M898.828,373.227c-0.357-0.304-0.778-0.539-1.277-0.594 c-12.051-1.338-35.629-1.352-58.352,13.676c-34.488,22.811-38.683,61.762-39.174,69.34c-0.085,1.31,0.887,2.449,2.195,2.577 c1.443,0.138,4.036,0.323,7.484,0.323c10.209,0,27.906-1.665,45.376-11.052c0.263,26.512,12.836,46.701,16.068,51.44 c0.47,0.688,1.231,1.063,2.01,1.063c0.446,0,0.899-0.123,1.303-0.38c6.402-4.076,38.516-26.494,41.898-67.722 c2.223-27.158-9.147-47.825-16.123-57.728C899.887,373.673,899.378,373.362,898.828,373.227z M805.079,453.566 c1.125-10.839,6.952-43.459,36.801-63.205c18.502-12.24,37.617-13.915,49.831-13.314c-10.529,7.551-24.982,21.243-32.33,43.13 c-2.515,7.49-3.781,14.758-4.177,21.668C834.773,453.772,813.422,454.034,805.079,453.566z M894.307,381.153 c-1.501,12.163-6.322,30.247-20.969,46.147c-4.113,4.464-8.49,8.135-12.961,11.237c0.564-5.425,1.675-11.044,3.612-16.813 C870.868,401.232,884.371,388.328,894.307,381.153z M911.513,431.499c-2.926,35.686-28.708,56.49-37.662,62.687 c-4.423-7.063-14.484-25.892-13.877-49.545c5.851-3.671,11.598-8.252,16.938-14.049c15.645-16.982,20.707-36.286,22.252-49.15 C905.568,391.859,913.328,409.358,911.513,431.499z M1517.274,386.309c-22.721-15.029-46.306-15.01-58.35-13.676 c-0.505,0.056-0.931,0.295-1.29,0.604c-0.542,0.137-1.046,0.443-1.396,0.933c-6.976,9.909-18.341,30.58-16.116,57.728 c3.379,41.228,35.491,63.646,41.893,67.722c0.403,0.256,0.854,0.38,1.305,0.38c0.773,0,1.537-0.37,2.007-1.058 c3.233-4.743,15.814-24.927,16.072-51.444c17.471,9.386,35.168,11.05,45.376,11.05c3.445,0,6.041-0.185,7.484-0.323 c1.305-0.128,2.278-1.267,2.192-2.577C1555.964,448.071,1551.764,409.12,1517.274,386.309z M1482.627,494.192 c-8.955-6.198-34.737-27.006-37.665-62.692c-1.813-22.136,5.948-39.641,12.351-50.061c1.543,12.863,6.603,32.166,22.248,49.155 c5.341,5.797,11.09,10.379,16.943,14.05C1497.115,468.305,1487.051,487.132,1482.627,494.192z M1462.17,381.155 c9.938,7.176,23.44,20.083,30.319,40.569c1.937,5.771,3.048,11.39,3.612,16.815c-4.471-3.102-8.848-6.774-12.961-11.239 C1468.495,411.402,1463.672,393.315,1462.17,381.155z M1501.274,441.847c-0.398-6.91-1.666-14.178-4.182-21.67 c-7.347-21.887-21.799-35.579-32.33-43.13c12.223-0.604,31.339,1.078,49.836,13.315c29.849,19.746,35.676,52.366,36.801,63.205 C1543.042,454.031,1521.699,453.771,1501.274,441.847z" fill="#375726"/></g><g id="change2_1"><path d="M1267.758,61.528c-33.201,0-64.284,9.208-90.863,25.178c-26.579-15.971-57.663-25.178-90.864-25.178 c-97.578,0-176.965,79.387-176.965,176.967c0,97.578,79.387,176.965,176.965,176.965c33.202,0,64.286-9.208,90.864-25.178 c26.578,15.971,57.662,25.178,90.863,25.178c97.581,0,176.967-79.387,176.967-176.965 C1444.725,140.914,1365.339,61.528,1267.758,61.528z M1086.031,410.601c-94.899,0-172.105-77.206-172.105-172.106 s77.206-172.108,172.105-172.108c31.403,0,60.843,8.495,86.215,23.248c-7.874,5.07-15.332,10.726-22.286,16.944 c-19.332-9.407-41.023-14.697-63.929-14.697c-80.841,0-146.611,65.77-146.611,146.613s65.77,146.613,146.611,146.613 c22.907,0,44.597-5.29,63.93-14.698c6.954,6.217,14.412,11.873,22.285,16.943C1146.875,402.105,1117.435,410.601,1086.031,410.601z M1258.139,238.495c0,49.745-21.238,94.604-55.095,126.054c-7.892-4.068-15.351-8.851-22.297-14.271 c31.714-26.914,51.896-67.026,51.896-111.783s-20.181-84.869-51.896-111.783c6.947-5.42,14.406-10.203,22.298-14.271 C1236.901,143.892,1258.139,188.75,1258.139,238.495z M1207.674,110.145c18.255-8.581,38.613-13.404,60.084-13.404 c78.162,0,141.751,63.591,141.751,141.754s-63.589,141.754-141.751,141.754c-21.471,0-41.83-4.823-60.085-13.404 c34.035-32.271,55.326-77.857,55.326-128.349C1262.999,188.002,1241.708,142.417,1207.674,110.145z M1095.653,238.495 c0-49.744,21.237-94.603,55.093-126.054c7.892,4.068,15.35,8.851,22.297,14.27c-31.714,26.914-51.895,67.026-51.895,111.783 s20.181,84.869,51.895,111.783c-6.947,5.42-14.405,10.202-22.296,14.27C1116.89,333.098,1095.653,288.24,1095.653,238.495z M1146.118,366.844c-18.256,8.582-38.615,13.405-60.087,13.405c-78.162,0-141.751-63.591-141.751-141.754 s63.589-141.754,141.751-141.754c21.471,0,41.829,4.823,60.085,13.404c-34.033,32.272-55.323,77.857-55.323,128.35 C1090.793,288.987,1112.084,334.572,1146.118,366.844z M1176.895,129.8c31.078,26.024,50.888,65.084,50.888,108.695 s-19.81,82.671-50.888,108.695c-31.078-26.024-50.888-65.084-50.888-108.695S1145.817,155.824,1176.895,129.8z M1176.894,353.428 c6.949,5.505,14.393,10.403,22.276,14.594c-6.959,6.086-14.4,11.627-22.276,16.544c-7.876-4.917-15.317-10.458-22.276-16.544 C1162.501,363.831,1169.946,358.933,1176.894,353.428z M1176.894,123.562c-6.948-5.505-14.394-10.403-22.276-14.594 c6.959-6.087,14.4-11.628,22.277-16.546c7.876,4.917,15.318,10.459,22.277,16.545 C1191.288,113.158,1183.843,118.057,1176.894,123.562z M1267.758,410.601c-31.403,0-60.842-8.495-86.214-23.247 c7.873-5.069,15.33-10.726,22.285-16.942c19.333,9.407,41.023,14.697,63.929,14.697c80.844,0,146.611-65.77,146.611-146.613 s-65.767-146.613-146.611-146.613c-22.906,0-44.596,5.289-63.928,14.696c-6.955-6.217-14.412-11.874-22.286-16.943 c25.372-14.752,54.811-23.247,86.214-23.247c94.9,0,172.108,77.208,172.108,172.108S1362.658,410.601,1267.758,410.601z M70.612,219.331c-8.07,0-15.387,3.286-20.683,8.589c-5.297-5.303-12.613-8.589-20.683-8.589C13.119,219.331,0,232.449,0,248.577 s13.119,29.246,29.246,29.246c8.07,0,15.387-3.286,20.683-8.589c5.297,5.303,12.613,8.589,20.683,8.589 c16.127,0,29.246-13.119,29.246-29.246S86.74,219.331,70.612,219.331z M29.246,272.964c-13.446,0-24.387-10.941-24.387-24.387 S15.8,224.19,29.246,224.19c6.887,0,13.088,2.896,17.527,7.504c-3.392,4.775-5.407,10.593-5.407,16.883s2.015,12.108,5.407,16.883 C42.334,270.067,36.134,272.964,29.246,272.964z M49.929,235.811c2.307,3.724,3.704,8.072,3.704,12.766 c0,4.694-1.396,9.042-3.704,12.766c-2.307-3.724-3.704-8.072-3.704-12.766C46.225,243.883,47.622,239.535,49.929,235.811z M70.612,272.964c-6.887,0-13.088-2.897-17.527-7.504c3.392-4.775,5.407-10.593,5.407-16.883s-2.015-12.108-5.407-16.883 c4.439-4.607,10.64-7.504,17.527-7.504c13.446,0,24.387,10.941,24.387,24.387S84.058,272.964,70.612,272.964z M2326.966,209.249 c-8.069,0-15.386,3.286-20.683,8.59c-5.297-5.304-12.614-8.59-20.683-8.59c-16.125,0-29.246,13.119-29.246,29.246 s13.121,29.246,29.246,29.246c8.069,0,15.386-3.286,20.683-8.59c5.297,5.304,12.614,8.59,20.683,8.59 c16.125,0,29.246-13.119,29.246-29.246S2343.091,209.249,2326.966,209.249z M2285.6,262.882c-13.449,0-24.387-10.941-24.387-24.387 c0-13.446,10.938-24.387,24.387-24.387c6.888,0,13.089,2.896,17.528,7.504c-3.392,4.775-5.408,10.593-5.408,16.883 c0,6.29,2.016,12.108,5.408,16.883C2298.689,259.985,2292.488,262.882,2285.6,262.882z M2306.283,225.728 c2.308,3.725,3.704,8.073,3.704,12.767s-1.396,9.042-3.704,12.767c-2.308-3.725-3.704-8.073-3.704-12.767 S2303.975,229.453,2306.283,225.728z M2326.966,262.882c-6.888,0-13.089-2.896-17.528-7.504c3.392-4.775,5.408-10.593,5.408-16.883 c0-6.29-2.016-12.108-5.408-16.883c4.439-4.607,10.639-7.504,17.528-7.504c13.449,0,24.387,10.941,24.387,24.387 C2351.353,251.941,2340.415,262.882,2326.966,262.882z M644.486,362.303c0,9.09-7.369,16.459-16.459,16.459 s-16.459-7.369-16.459-16.459c0-9.09,7.369-16.459,16.459-16.459S644.486,353.213,644.486,362.303z M1742.197,362.303 c0,9.09-7.369,16.459-16.459,16.459c-9.09,0-16.459-7.369-16.459-16.459c0-9.09,7.369-16.459,16.459-16.459 C1734.828,345.844,1742.197,353.213,1742.197,362.303z" fill="#D79034"/></g></svg>