<?xml version="1.0" encoding="UTF-8"?><svg xmlns="http://www.w3.org/2000/svg" xmlns:xlink="http://www.w3.org/1999/xlink" height="4318.8" preserveAspectRatio="xMidYMid meet" version="1.0" viewBox="0.0 0.0 3917.8 4318.8" width="3917.8" zoomAndPan="magnify"><defs><clipPath id="a"><path d="M 0 1197 L 3917.800781 1197 L 3917.800781 4318.800781 L 0 4318.800781 Z M 0 1197"/></clipPath><clipPath id="b"><path d="M 0 400 L 3917.800781 400 L 3917.800781 1198 L 0 1198 Z M 0 400"/></clipPath></defs><g><g clip-path="url(#a)" id="change1_1"><path d="M 225.722656 4318.800781 L 3692.085938 4318.800781 C 3816.734375 4318.800781 3917.804688 4217.738281 3917.804688 4093.078125 L 3917.804688 1197.082031 L 0 1197.082031 L 0 4093.078125 C 0 4217.738281 101.058594 4318.800781 225.722656 4318.800781" fill="#f9f9f9"/></g><g clip-path="url(#b)" id="change2_1"><path d="M 0 626.714844 L 0 1197.082031 L 3917.804688 1197.082031 L 3917.804688 626.714844 C 3917.804688 502.066406 3816.734375 400.996094 3692.085938 400.996094 L 225.722656 400.996094 C 101.058594 400.996094 0 502.066406 0 626.714844" fill="#e60012"/></g><g id="change3_1"><path d="M 1168.519531 816.359375 C 1064.617188 816.359375 980.417969 732.15625 980.417969 628.265625 L 980.417969 188.09375 C 980.417969 84.203125 1064.617188 0 1168.519531 0 C 1272.417969 0 1356.621094 84.203125 1356.621094 188.09375 L 1356.621094 628.265625 C 1356.621094 732.15625 1272.417969 816.359375 1168.519531 816.359375" fill="#fff"/></g><g id="change4_1"><path d="M 1168.519531 0 C 1272.417969 0 1356.621094 84.203125 1356.621094 188.09375 L 1356.621094 628.265625 C 1356.621094 732.15625 1272.417969 816.359375 1168.519531 816.359375 L 1168.519531 0" fill="#efefef"/></g><g id="change3_2"><path d="M 2721.46875 816.375 C 2617.578125 816.375 2533.378906 732.171875 2533.378906 628.28125 L 2533.378906 188.109375 C 2533.378906 84.21875 2617.578125 0.015625 2721.46875 0.015625 C 2825.359375 0.015625 2909.585938 84.21875 2909.585938 188.109375 L 2909.585938 628.28125 C 2909.585938 732.171875 2825.359375 816.375 2721.46875 816.375" fill="#fff"/></g><g id="change4_2"><path d="M 2721.46875 0.015625 C 2825.359375 0.015625 2909.585938 84.21875 2909.585938 188.109375 L 2909.585938 628.28125 C 2909.585938 732.171875 2825.359375 816.375 2721.46875 816.375 L 2721.46875 0.015625" fill="#efefef"/></g></g></svg>